<svg width="30" height="30" viewBox="0 0 30 30" fill="none" xmlns="http://www.w3.org/2000/svg">
<path d="M29.6 15C29.6 23.0634 23.0634 29.6 15 29.6C6.93665 29.6 0.4 23.0634 0.4 15C0.4 6.93664 6.93665 0.4 15 0.4C23.0634 0.4 29.6 6.93664 29.6 15Z" stroke="#838383" stroke-width="0.8"/>
<path fill-rule="evenodd" clip-rule="evenodd" d="M14.9618 21.142C13.8904 20.0704 9.28662 17.3473 9.28662 13.2986C9.28662 10.0401 11.8275 7.58948 14.9618 7.58948C18.0961 7.58948 20.637 10.1455 20.637 13.2986C20.637 17.3473 15.9034 20.0928 14.9618 21.142Z" stroke="#838383" stroke-width="0.8" stroke-miterlimit="22.9256" stroke-linecap="round" stroke-linejoin="round"/>
<path d="M15 15C16.1046 15 17 14.1046 17 13C17 11.8954 16.1046 11 15 11C13.8954 11 13 11.8954 13 13C13 14.1046 13.8954 15 15 15Z" stroke="#838383" stroke-width="0.8" stroke-miterlimit="22.9256" stroke-linecap="round" stroke-linejoin="round"/>
<path d="M11.3503 22.7683L18.5733 22.7683" stroke="#838383" stroke-width="0.8" stroke-miterlimit="22.9256" stroke-linecap="round" stroke-linejoin="round"/>
</svg>
